<?xml version="1.0" encoding="utf-8"?>
<!-- Generator: Adobe Illustrator 19.2.0, SVG Export Plug-In . SVG Version: 6.00 Build 0)  -->
<svg version="1.1" id="Capa_1" xmlns="http://www.w3.org/2000/svg" xmlns:xlink="http://www.w3.org/1999/xlink" x="0px" y="0px"
	 viewBox="0 0 512 512" enable-background="new 0 0 512 512" xml:space="preserve">
<path fill="#252F44" d="M384,240H256.2v-2c0-34.1-27.9-62-62-62h0c-36.4,0-66.1,29.8-66.1,66.1v31.3c0,34.1,27.9,62,62,62h4.1
	c34.1,0,62-27.9,62-62V272H288v31.7h32V272h16v31.7h32V272h16V240z M224,273.8c0,16.4-13.5,29.9-29.9,29.9h-4.1
	c-16.4,0-29.9-13.5-29.9-29.9v-32.5c0-18.7,15.3-34,34-34h0c16.4,0,29.9,13.5,29.9,29.9V273.8z"/>
<g>
	<path fill="#252F44" d="M494.8,342.6l-78,20.3l24.2,19.1c-40.4,59.1-108.4,98-185.4,98c-115.9,0-211.3-87.9-223.2-200.6l-30.9,1.8
		C14.4,410.3,123.5,511,256,511c86.8,0,163.5-43.2,209.8-109.3l26.8,21.2L494.8,342.6z"/>
	<path fill="#252F44" d="M74.5,122.7C115.4,67.1,181.2,31,255.5,31c118.7,0,215.8,92.1,223.9,208.6l32-1.9
		C502.5,104.4,391.6-1,256-1C171.4-1,97.4,39.3,51.2,102.2L25.8,79.8l-6.5,80l79-16.2L74.5,122.7z"/>
</g>
</svg>
