<?xml version="1.0" encoding="utf-8"?>
<!-- Generator: Adobe Illustrator 19.2.0, SVG Export Plug-In . SVG Version: 6.00 Build 0)  -->
<svg version="1.1" id="Capa_1" xmlns="http://www.w3.org/2000/svg" xmlns:xlink="http://www.w3.org/1999/xlink" x="0px" y="0px"
	 viewBox="0 0 439.9 178.8" enable-background="new 0 0 439.9 178.8" xml:space="preserve">
<g>
	<g id="send">
		<linearGradient id="SVGID_1_" gradientUnits="userSpaceOnUse" x1="4.0719" y1="89.3864" x2="210.6533" y2="89.3864">
			<stop  offset="0" style="stop-color:#FF6624"/>
			<stop  offset="1" style="stop-color:#C90032"/>
		</linearGradient>
		<polygon fill="url(#SVGID_1_)" points="98.8,178.8 210.7,0 4.1,42.3 40.9,95.4 165.2,31.6 62,125.7 		"/>
	</g>
</g>
<g>
	<path fill="#FFFFFF" d="M20.2,103.8c3,0,5.2-0.4,6.6-1.1c1.4-0.7,2.1-2,2.1-3.7c0-1.6-0.7-3-2.2-4.1c-1.5-1.1-3.9-2.2-7.3-3.5
		c-2.1-0.8-4-1.6-5.7-2.4c-1.7-0.9-3.2-1.8-4.5-3c-1.3-1.1-2.3-2.5-3-4.1C5.4,80.3,5,78.3,5,76c0-4.5,1.7-8.1,5-10.7
		c3.3-2.6,7.9-3.9,13.6-3.9c2.9,0,5.7,0.3,8.3,0.8c2.6,0.5,4.6,1.1,6,1.6L35.9,73c-1.3-0.6-2.9-1.1-4.8-1.6c-2-0.5-4.2-0.7-6.8-0.7
		c-2.3,0-4.2,0.4-5.7,1.2c-1.5,0.8-2.2,2-2.2,3.6c0,0.8,0.1,1.5,0.4,2.2c0.3,0.6,0.8,1.2,1.5,1.7c0.7,0.5,1.6,1.1,2.7,1.6
		c1.1,0.5,2.5,1.1,4.2,1.7c2.7,1,5,2,6.9,3c1.9,1,3.5,2.1,4.7,3.3c1.2,1.2,2.1,2.6,2.7,4.2c0.6,1.6,0.9,3.5,0.9,5.7
		c0,4.7-1.7,8.3-5.2,10.7c-3.5,2.4-8.5,3.6-15,3.6c-4.3,0-7.8-0.4-10.5-1.1c-2.6-0.7-4.5-1.3-5.6-1.7l2-9.5c1.7,0.7,3.7,1.4,6.1,2
		C14.4,103.5,17.1,103.8,20.2,103.8z"/>
	<path fill="#FFFFFF" d="M48.2,87.5c0-4.3,0.6-8.2,1.9-11.4c1.3-3.3,3-6,5.2-8.2c2.1-2.2,4.6-3.8,7.4-4.9c2.8-1.1,5.6-1.7,8.5-1.7
		c6.8,0,12.1,2.1,15.9,6.3c3.8,4.2,5.7,10.5,5.7,18.9c0,0.6,0,1.3,0,2.1c0,0.8-0.1,1.5-0.1,2.1H60.1c0.3,4,1.7,7,4.2,9.2
		c2.5,2.2,6.1,3.3,10.8,3.3c2.8,0,5.3-0.3,7.6-0.8c2.3-0.5,4.1-1,5.4-1.6l1.5,9.4c-0.6,0.3-1.5,0.6-2.6,1c-1.1,0.3-2.4,0.7-3.8,0.9
		s-2.9,0.5-4.6,0.7c-1.6,0.2-3.3,0.3-5,0.3c-4.3,0-8.1-0.6-11.3-1.9s-5.9-3.1-7.9-5.4c-2.1-2.3-3.6-5-4.6-8.1
		C48.7,94.7,48.2,91.3,48.2,87.5z M81.4,82.4c0-1.6-0.2-3.1-0.7-4.5c-0.4-1.4-1.1-2.6-1.9-3.7c-0.9-1-1.9-1.9-3.1-2.5
		c-1.2-0.6-2.7-0.9-4.4-0.9c-1.8,0-3.3,0.3-4.6,1c-1.3,0.7-2.4,1.5-3.4,2.6c-0.9,1.1-1.6,2.3-2.1,3.7c-0.5,1.4-0.9,2.8-1,4.3H81.4z"
		/>
	<path fill="#FFFFFF" d="M105,64.2c2.2-0.6,5.1-1.2,8.6-1.8c3.5-0.6,7.4-0.9,11.7-0.9c4,0,7.4,0.6,10.1,1.7c2.7,1.1,4.9,2.6,6.5,4.6
		c1.6,2,2.7,4.4,3.4,7.2c0.7,2.8,1,5.9,1,9.2V112h-11.4V86c0-2.6-0.2-4.9-0.5-6.8c-0.3-1.9-0.9-3.4-1.7-4.5c-0.8-1.2-1.9-2-3.2-2.6
		c-1.4-0.5-3-0.8-5-0.8c-1.5,0-3,0.1-4.5,0.3c-1.6,0.2-2.7,0.3-3.5,0.5V112H105V64.2z"/>
	<path fill="#FFFFFF" d="M202.1,110.5c-2.3,0.7-5.1,1.3-8.6,1.9c-3.4,0.6-7,0.9-10.8,0.9c-3.9,0-7.4-0.6-10.5-1.8
		c-3.1-1.2-5.7-2.9-7.9-5.2c-2.2-2.2-3.8-4.9-5-8.1c-1.2-3.2-1.7-6.8-1.7-10.7c0-3.9,0.5-7.5,1.5-10.6c1-3.2,2.4-5.9,4.3-8.2
		c1.9-2.3,4.2-4,6.9-5.2c2.7-1.2,5.8-1.8,9.4-1.8c2.4,0,4.5,0.3,6.3,0.9c1.8,0.6,3.4,1.2,4.7,1.9V40.6l11.4-1.9V110.5z M169.3,87.2
		c0,5,1.2,9,3.6,11.9c2.4,2.9,5.7,4.3,9.9,4.3c1.8,0,3.4-0.1,4.7-0.2c1.3-0.2,2.3-0.3,3.2-0.5V74.2c-1-0.7-2.3-1.3-4-1.9
		c-1.7-0.6-3.5-0.9-5.3-0.9c-4.2,0-7.2,1.4-9.1,4.3C170.2,78.5,169.3,82.3,169.3,87.2z"/>
	<path fill="#FFFFFF" d="M236.8,38.7c2.6,0,5,0.2,7,0.7c2,0.5,3.5,0.9,4.5,1.3l-2.2,9.5c-1.1-0.5-2.3-0.9-3.7-1.2
		c-1.4-0.3-2.9-0.5-4.6-0.5c-1.8,0-3.4,0.3-4.6,0.8c-1.3,0.5-2.3,1.3-3,2.2c-0.8,0.9-1.3,2.1-1.6,3.5c-0.3,1.4-0.5,2.8-0.5,4.4v3.3
		h18v9.5h-18V112h-11.4V59.1c0-6.4,1.7-11.4,5-15C225,40.5,230,38.7,236.8,38.7z"/>
	<path fill="#FFFFFF" d="M298.2,87.3c0,3.9-0.6,7.5-1.7,10.7c-1.1,3.2-2.7,6-4.8,8.2c-2.1,2.3-4.6,4-7.5,5.3s-6.2,1.9-9.7,1.9
		c-3.5,0-6.7-0.6-9.6-1.9c-2.9-1.3-5.4-3-7.5-5.3c-2.1-2.3-3.7-5-4.9-8.2c-1.2-3.2-1.7-6.8-1.7-10.7c0-3.9,0.6-7.5,1.7-10.6
		c1.2-3.2,2.8-5.9,4.9-8.2c2.1-2.3,4.6-4,7.5-5.2c2.9-1.2,6.1-1.8,9.5-1.8c3.5,0,6.7,0.6,9.6,1.8c2.9,1.2,5.4,3,7.5,5.2
		s3.7,5,4.9,8.2C297.6,79.8,298.2,83.4,298.2,87.3z M286.5,87.3c0-4.9-1.1-8.8-3.2-11.7c-2.1-2.9-5.1-4.3-8.8-4.3
		c-3.8,0-6.7,1.4-8.8,4.3c-2.1,2.9-3.2,6.8-3.2,11.7c0,5,1.1,8.9,3.2,11.8c2.1,2.9,5.1,4.3,8.8,4.3c3.8,0,6.7-1.4,8.8-4.3
		C285.4,96.2,286.5,92.2,286.5,87.3z"/>
	<path fill="#FFFFFF" d="M338.2,72.9c-0.9-0.3-2.3-0.6-3.9-1c-1.7-0.3-3.6-0.5-5.8-0.5c-1.3,0-2.6,0.1-4,0.4c-1.4,0.3-2.4,0.5-3,0.7
		V112H310V64.9c2.2-0.8,5-1.6,8.3-2.3c3.3-0.7,7-1.1,11-1.1c0.8,0,1.6,0,2.6,0.1c1,0.1,2,0.2,3,0.4c1,0.2,2,0.3,2.9,0.6
		c0.9,0.2,1.7,0.4,2.3,0.6L338.2,72.9z"/>
	<path fill="#FFFFFF" d="M345.4,87.4c0-3.7,0.6-7.1,1.7-10.3c1.1-3.2,2.8-5.9,4.9-8.3c2.1-2.3,4.7-4.2,7.7-5.5c3-1.3,6.4-2,10.2-2
		c4.7,0,9.1,0.9,13.2,2.6l-2.5,9.4c-1.3-0.6-2.8-1-4.5-1.4c-1.7-0.4-3.5-0.6-5.3-0.6c-4.5,0-7.9,1.4-10.2,4.2
		c-2.3,2.8-3.5,6.8-3.5,11.9c0,4.9,1.1,8.8,3.3,11.7c2.2,2.9,5.9,4.3,11.2,4.3c2,0,3.9-0.2,5.8-0.6c1.9-0.4,3.5-0.9,4.9-1.4l1.6,9.5
		c-1.3,0.6-3.2,1.2-5.7,1.7c-2.6,0.5-5.2,0.8-7.9,0.8c-4.2,0-7.9-0.6-11-1.9c-3.1-1.3-5.7-3.1-7.8-5.4c-2-2.3-3.6-5-4.6-8.2
		C345.9,94.5,345.4,91.1,345.4,87.4z"/>
	<path fill="#FFFFFF" d="M390,87.5c0-4.3,0.6-8.2,1.9-11.4c1.3-3.3,3-6,5.2-8.2c2.1-2.2,4.6-3.8,7.4-4.9c2.8-1.1,5.6-1.7,8.5-1.7
		c6.8,0,12.1,2.1,15.9,6.3c3.8,4.2,5.7,10.5,5.7,18.9c0,0.6,0,1.3,0,2.1c0,0.8-0.1,1.5-0.1,2.1h-32.6c0.3,4,1.7,7,4.2,9.2
		c2.5,2.2,6.1,3.3,10.8,3.3c2.8,0,5.3-0.3,7.6-0.8c2.3-0.5,4.1-1,5.4-1.6l1.5,9.4c-0.6,0.3-1.5,0.6-2.6,1c-1.1,0.3-2.4,0.7-3.8,0.9
		s-2.9,0.5-4.6,0.7c-1.6,0.2-3.3,0.3-5,0.3c-4.3,0-8.1-0.6-11.3-1.9c-3.2-1.3-5.9-3.1-7.9-5.4c-2.1-2.3-3.6-5-4.6-8.1
		C390.5,94.7,390,91.3,390,87.5z M423.2,82.4c0-1.6-0.2-3.1-0.7-4.5c-0.4-1.4-1.1-2.6-1.9-3.7s-1.9-1.9-3.1-2.5
		c-1.2-0.6-2.7-0.9-4.4-0.9c-1.8,0-3.3,0.3-4.6,1c-1.3,0.7-2.4,1.5-3.4,2.6c-0.9,1.1-1.6,2.3-2.1,3.7c-0.5,1.4-0.9,2.8-1,4.3H423.2z
		"/>
</g>
</svg>
