<?xml version="1.0" encoding="utf-8"?>
<!-- Generator: Adobe Illustrator 19.2.0, SVG Export Plug-In . SVG Version: 6.00 Build 0)  -->
<svg version="1.1" id="Capa_1" xmlns="http://www.w3.org/2000/svg" xmlns:xlink="http://www.w3.org/1999/xlink" x="0px" y="0px"
	 viewBox="0 0 165.1 50" enable-background="new 0 0 165.1 50" xml:space="preserve">
<path fill="#A1A1A1" d="M25,0C11.2,0,0,11.2,0,25s11.2,25,25,25s25-11.2,25-25S38.8,0,25,0z M1.6,25C1.6,12.1,12.1,1.6,25,1.6
	S48.4,12.1,48.4,25c0,6-2.2,11.4-5.9,15.5c-3-4.4-7.4-7.4-12.5-8.6c4.2-1.9,7.1-6.1,7.1-11c0-6.7-5.4-12.1-12.1-12.1
	S12.9,14.3,12.9,21c0,5,3,9.3,7.4,11.1c-5,1.3-9.4,4.5-12.3,8.9C4.1,36.9,1.6,31.2,1.6,25z M25,31.5c-5.8,0-10.5-4.7-10.5-10.5
	S19.2,10.5,25,10.5S35.5,15.2,35.5,21S30.8,31.5,25,31.5z M9.2,42.2c3.4-5.6,9.6-9.1,16.2-9.1c6.5,0,12.4,3.2,15.9,8.7
	c-4.2,4.1-10,6.7-16.3,6.7C18.9,48.4,13.4,46,9.2,42.2z"/>
<g transform="translate(0,-952.36218)">
	<path fill="#A1A1A1" d="M105.1,957.7c-2.3,0-4.2,1.9-4.2,4.2c0,0.9,0.3,1.7,0.7,2.4l-10.8,13.2c-0.4-0.1-0.8-0.2-1.2-0.2
		c-1,0-1.9,0.3-2.6,0.9l-7.3-4.2c0.1-0.3,0.1-0.6,0.1-0.9c0-2.3-1.9-4.2-4.2-4.2s-4.2,1.9-4.2,4.2c0,0.9,0.3,1.8,0.8,2.5l-9.5,13.1
		c-0.3-0.1-0.7-0.2-1.1-0.2c-2.3,0-4.2,1.9-4.2,4.2s1.9,4.2,4.2,4.2s4.2-1.9,4.2-4.2c0-0.9-0.3-1.8-0.8-2.5l9.5-13.1
		c0.4,0.1,0.7,0.2,1.1,0.2c1,0,1.9-0.3,2.6-0.9l7.3,4.2c-0.1,0.3-0.1,0.6-0.1,0.9c0,2.3,1.9,4.2,4.2,4.2s4.2-1.9,4.2-4.2
		c0-0.9-0.3-1.7-0.8-2.4L104,966c0.4,0.1,0.8,0.2,1.2,0.2c2.3,0,4.2-1.9,4.2-4.2C109.3,959.6,107.4,957.7,105.1,957.7L105.1,957.7z
		 M105.1,960.5c0.8,0,1.4,0.6,1.4,1.4s-0.6,1.4-1.4,1.4s-1.4-0.6-1.4-1.4S104.3,960.5,105.1,960.5z M75.7,971.8
		c0.8,0,1.4,0.6,1.4,1.4c0,0.8-0.6,1.4-1.4,1.4s-1.4-0.6-1.4-1.4C74.3,972.4,74.9,971.8,75.7,971.8z M89.7,980.2
		c0.8,0,1.4,0.6,1.4,1.4s-0.6,1.4-1.4,1.4s-1.4-0.6-1.4-1.4S88.9,980.2,89.7,980.2z M61.7,991.4c0.8,0,1.4,0.6,1.4,1.4
		c0,0.8-0.6,1.4-1.4,1.4s-1.4-0.6-1.4-1.4C60.3,992,60.9,991.4,61.7,991.4z"/>
</g>
<g>
	<path fill="#A1A1A1" d="M159.8,18.8h-0.7v-0.7C159.1,8.1,151,0,141,0s-18.1,8.1-18.1,18.1v0.7h-0.7c-3,0-5.4,2.4-5.4,5.4v8.7
		c0,3,2.4,5.4,5.4,5.4h6V18.8h-2.7v-0.7c0-8.5,6.9-15.4,15.4-15.4c8.5,0,15.4,6.9,15.4,15.4v0.7h-2.7v19.5h3.8c-0.6,2.3-2.7,4-5.2,4
		h-3.8c-0.6-2.9-3.2-5-6.2-5c-3.5,0-6.4,2.9-6.4,6.4s2.9,6.4,6.4,6.4l0,0c3.1,0,5.6-2.1,6.2-5h3.8c4,0,7.3-3,7.9-6.7
		c2.7-0.3,4.8-2.6,4.8-5.4v-8.7C165.1,21.2,162.8,18.8,159.8,18.8z M125.5,21.5v14.1h-3.4c-1.5,0-2.7-1.2-2.7-2.7v-8.7
		c0-1.5,1.2-2.7,2.7-2.7h0.7L125.5,21.5L125.5,21.5z M142.3,47.4L142.3,47.4c-2.1,0-3.7-1.7-3.7-3.7c0-2,1.7-3.7,3.7-3.7
		c2,0,3.7,1.7,3.7,3.7C146,45.7,144.3,47.4,142.3,47.4z M162.4,33c0,1.5-1.2,2.7-2.7,2.7h-2h-1.3V21.5l0,0h2.7h0.7
		c1.5,0,2.7,1.2,2.7,2.7V33z"/>
</g>
</svg>
