<?xml version="1.0" encoding="utf-8"?>
<!-- Generator: Adobe Illustrator 19.2.0, SVG Export Plug-In . SVG Version: 6.00 Build 0)  -->
<svg version="1.1" id="Capa_1" xmlns="http://www.w3.org/2000/svg" xmlns:xlink="http://www.w3.org/1999/xlink" x="0px" y="0px"
	 viewBox="0 0 62 62" enable-background="new 0 0 62 62" xml:space="preserve">
<path fill="#252F44" d="M31,0C13.9,0,0,13.9,0,31s13.9,31,31,31s31-13.9,31-31S48.1,0,31,0z M2,31C2,15,15,2,31,2s29,13,29,29
	c0,7.4-2.8,14.1-7.3,19.3c-3.7-5.5-9.2-9.2-15.5-10.6C42.4,37.3,46,32.1,46,26c0-8.3-6.7-15-15-15s-15,6.7-15,15
	c0,6.2,3.8,11.5,9.2,13.8c-6.2,1.6-11.7,5.6-15.2,11.1C5,45.7,2,38.7,2,31z M31,39c-7.2,0-13-5.8-13-13s5.8-13,13-13s13,5.8,13,13
	S38.2,39,31,39z M11.4,52.3c4.2-7,11.9-11.3,20.1-11.3c8.1,0,15.4,4,19.7,10.8C46,56.8,38.9,60,31,60C23.4,60,16.6,57.1,11.4,52.3z"
	/>
</svg>
